<svg width="48" height="48" fill="none" xmlns="http://www.w3.org/2000/svg">
    <path d="M15.61,22.11a11.3,11.3,0,0,0-2,3c-1.45,2.45-2.85,4.93-4.25,7.4a7.08,7.08,0,0,0-.91,2.6A3.34,3.34,0,0,0,10,38.62a6.75,6.75,0,0,0,2.09.82c.1,0,.25.1.28.18a6.06,6.06,0,0,0,2.32,2.49,27.47,27.47,0,0,0,4.41,2.44l1.53.73a.37.37,0,0,1,.17.14H8.25a5.34,5.34,0,0,1-5.34-5.33V7.9A5.35,5.35,0,0,1,8.23,2.58H39.76a5.33,5.33,0,0,1,5.32,5.31q0,16.11,0,32.24a5.32,5.32,0,0,1-5.26,5.29h-12a.33.33,0,0,1-.2-.05l.86-.41a24.74,24.74,0,0,0,4.18-2.4q1.24-1,2.46-2a1.06,1.06,0,0,0,.32-.55.86.86,0,0,1,.65-.62,9.25,9.25,0,0,0,1.46-.58,3.87,3.87,0,0,0,2.16-2.63A3,3,0,0,0,39.3,34c-1.18-2.16-2.34-4.31-3.53-6.45-1-1.77-2-3.53-3-5.3a.63.63,0,0,1-.09-.5,9.09,9.09,0,0,0,.21-1.27,2.39,2.39,0,0,0-.1-.88,3.92,3.92,0,0,0-.93-1.6,3,3,0,0,0-3.62-.69,16.7,16.7,0,0,1-2.45.89A7.57,7.57,0,0,1,20,17.44a3,3,0,0,0-2.28-.36,2.79,2.79,0,0,0-1.19.68,6.11,6.11,0,0,0-1.33,1.89,2.14,2.14,0,0,0,.26,2.29A1.25,1.25,0,0,1,15.61,22.11ZM9.78,5.93a10.11,10.11,0,0,0-4.87,6.92l1.79-1-.08.33a13.5,13.5,0,0,0-.37,4.65,12.91,12.91,0,0,0,4,7.83.24.24,0,0,0,.23,0c2.94-1.35,3.78-3.86,3.38-6.68l-.25.09-1.49.65a.22.22,0,0,1-.31-.06c-.14-.19-.3-.36-.45-.55a5.85,5.85,0,0,1-1.16-5.49,1,1,0,0,0-.06-.77l-.33-.67c0-.05,0-.11-.06-.2l.19.06q3.41,1.23,6.69,2.74a21.47,21.47,0,0,0,2.65,1.05,1.86,1.86,0,0,0,2.37-1l.11-.21c0,.09,0,.13,0,.17,0,.45-.07.9-.1,1.35a1.29,1.29,0,0,0,.42,1.09,3.39,3.39,0,0,0,1.56.86A2,2,0,0,0,26,16.07a4.3,4.3,0,0,0,.3-.92c.07-.36.08-.73.13-1.11l.29.37a1.77,1.77,0,0,0,1.88.59,5.34,5.34,0,0,0,.95-.33c2.78-1.27,5.57-2.49,8.42-3.55l.3-.1c-.16.31-.28.57-.42.81a.88.88,0,0,0-.07.79A5.19,5.19,0,0,1,38,15.3a7.92,7.92,0,0,1-1.69,3.39.26.26,0,0,1-.24,0c-.53-.18-1-.39-1.57-.58L34.11,18c0,1,0,2,0,3a1.43,1.43,0,0,0,.44,1.11c.69.65,1.36,1.31,2.05,2l.91.87c3.75-3.69,5.25-8,3.72-13.19l1.87,1a10.44,10.44,0,0,0-4.81-6.94c.32-.41.61-.8.93-1.18a.26.26,0,0,0,0-.43l-5.52,2,.15-1.45-.17.09-6.3,3.87c-.86.53-1.71,1.09-2.57,1.61a1.49,1.49,0,0,1-1.62,0c-.38-.23-.75-.46-1.12-.71a63.28,63.28,0,0,0-6.29-3.84c-.54-.28-1.1-.53-1.69-.82l.47,1.37L9,4.27c-.21.19-.18.35,0,.55S9.49,5.54,9.78,5.93Z"/><path d="M16.81,37.44a14.54,14.54,0,0,1,3.46-1.21,13.68,13.68,0,0,1,5.06-.17,19.22,19.22,0,0,1,5,1.58,14.31,14.31,0,0,1-6.76,1.48A17.62,17.62,0,0,1,16.81,37.44Z"/><path d="M11.2,36.28c-.27-.19-.26-.49-.3-.76,0,0,.06-.09.1-.12,2.16-1.11,4.23-2.39,6.49-3.29A17.25,17.25,0,0,1,32,32.75c1.43.7,2.82,1.49,4.24,2.19a1.57,1.57,0,0,1,.85,1.19L36.88,36a27.34,27.34,0,0,0-7.69-3.52A19.56,19.56,0,0,0,16,33.58a27.78,27.78,0,0,0-4.46,2.49Z"/><path d="M26.36,21.55a2.58,2.58,0,0,1,1.16-2A3.2,3.2,0,0,1,29,19.05a1,1,0,0,1,.57.22c.39.3.75.65,1.14,1-.08.18-.15.35-.24.52a.27.27,0,0,1-.18.13Z"/><path d="M22.05,20.91c-.11.18-.19.33-.28.45a.24.24,0,0,1-.2.09c-1-.14-2.08-.27-3.11-.44a2.62,2.62,0,0,1-.74-.3.38.38,0,0,1-.14-.26,1,1,0,0,1,.65-1,3.88,3.88,0,0,0,.36-.15,1.26,1.26,0,0,1,1.31.1Z"/>
</svg>
