<?xml version="1.0" encoding="utf-8"?>
<!-- Generator: Adobe Illustrator 25.4.1, SVG Export Plug-In . SVG Version: 6.00 Build 0)  -->
<svg version="1.1" id="Layer_1" xmlns="http://www.w3.org/2000/svg" xmlns:xlink="http://www.w3.org/1999/xlink" x="0px" y="0px"
	 viewBox="0 0 48 48" style="enable-background:new 0 0 48 48;" xml:space="preserve">
<style type="text/css">
	.st0{fill:#FFEB3B;}
</style>
<rect class="st0" width="48" height="48"/>
<path d="M15.6,22.1c-0.8,0.9-1.5,1.9-2,3c-1.4,2.5-2.8,4.9-4.2,7.4c-0.5,0.8-0.8,1.7-0.9,2.6c-0.3,1.4,0.3,2.8,1.6,3.5
	c0.6,0.4,1.4,0.7,2.1,0.8c0.1,0,0.2,0.1,0.3,0.2c0.5,1,1.3,1.9,2.3,2.5c1.4,0.9,2.9,1.8,4.4,2.4l1.5,0.7c0.1,0,0.1,0.1,0.2,0.1H8.2
	c-2.9,0-5.3-2.4-5.3-5.3V7.9c0-2.9,2.4-5.3,5.3-5.3h31.5c2.9,0,5.3,2.4,5.3,5.3c0,10.7,0,21.5,0,32.2c0,2.9-2.4,5.3-5.3,5.3h-12
	c-0.1,0-0.1,0-0.2,0l0.9-0.4c1.5-0.7,2.9-1.5,4.2-2.4c0.8-0.7,1.6-1.3,2.5-2c0.2-0.1,0.3-0.3,0.3-0.5c0.1-0.3,0.3-0.6,0.7-0.6
	c0.5-0.2,1-0.3,1.5-0.6c1.1-0.5,1.9-1.5,2.2-2.6c0.1-0.8,0-1.5-0.4-2.2c-1.2-2.2-2.3-4.3-3.5-6.5c-1-1.8-2-3.5-3-5.3
	c-0.1-0.1-0.1-0.3-0.1-0.5c0.1-0.4,0.2-0.8,0.2-1.3c0-0.3,0-0.6-0.1-0.9c-0.2-0.6-0.5-1.1-0.9-1.6c-0.9-1-2.4-1.3-3.6-0.7
	c-0.8,0.4-1.6,0.7-2.5,0.9c-2,0.5-4,0.3-5.8-0.8c-0.7-0.4-1.5-0.5-2.3-0.4c-0.4,0.1-0.9,0.4-1.2,0.7c-0.6,0.5-1,1.2-1.3,1.9
	c-0.4,0.7-0.3,1.6,0.3,2.3C15.5,22,15.6,22,15.6,22.1z M9.8,5.9c-2.6,1.5-4.3,4-4.9,6.9l1.8-1l-0.1,0.3c-0.4,1.5-0.5,3.1-0.4,4.6
	c0.4,3,1.8,5.8,4,7.8c0.1,0,0.2,0,0.2,0c2.9-1.4,3.8-3.9,3.4-6.7l-0.2,0.1l-1.5,0.6c-0.1,0.1-0.2,0-0.3-0.1c0,0,0,0,0,0
	c-0.1-0.2-0.3-0.4-0.4-0.5c-1.3-1.5-1.7-3.6-1.2-5.5c0.1-0.3,0.1-0.5-0.1-0.8l-0.3-0.7c0-0.1,0-0.1-0.1-0.2L9.9,11
	c2.3,0.8,4.5,1.7,6.7,2.7c0.9,0.4,1.7,0.8,2.6,1.1c0.9,0.4,2-0.1,2.4-1l0.1-0.2c0,0.1,0,0.1,0,0.2c0,0.4-0.1,0.9-0.1,1.4
	c0,0.4,0.1,0.8,0.4,1.1c0.4,0.4,1,0.7,1.6,0.9c0.9,0.3,1.9-0.2,2.4-1c0.1-0.3,0.2-0.6,0.3-0.9c0.1-0.4,0.1-0.7,0.1-1.1l0.3,0.4
	c0.4,0.6,1.2,0.8,1.9,0.6c0.3-0.1,0.6-0.2,1-0.3c2.8-1.3,5.6-2.5,8.4-3.6l0.3-0.1c-0.2,0.3-0.3,0.6-0.4,0.8
	c-0.1,0.2-0.2,0.5-0.1,0.8c0.3,0.9,0.4,1.8,0.2,2.7c-0.3,1.3-0.9,2.4-1.7,3.4c-0.1,0-0.2,0-0.2,0c-0.5-0.2-1-0.4-1.6-0.6L34.1,18
	c0,1,0,2,0,3c0,0.4,0.1,0.8,0.4,1.1c0.7,0.6,1.4,1.3,2,2l0.9,0.9c3.8-3.7,5.2-8,3.7-13.2l1.9,1c-0.6-2.9-2.3-5.4-4.8-6.9
	c0.3-0.4,0.6-0.8,0.9-1.2c0.1-0.1,0.1-0.2,0.1-0.4c0,0,0-0.1-0.1-0.1l-5.5,2l0.2-1.5l-0.2,0.1l-6.3,3.9c-0.9,0.5-1.7,1.1-2.6,1.6
	c-0.5,0.3-1.1,0.3-1.6,0c-0.4-0.2-0.8-0.5-1.1-0.7c-2-1.4-4.1-2.7-6.3-3.8c-0.5-0.3-1.1-0.5-1.7-0.8l0.5,1.4L9,4.3
	C8.8,4.5,8.8,4.6,9,4.8S9.5,5.5,9.8,5.9z"/>
<path d="M16.8,37.4c1.1-0.5,2.3-1,3.5-1.2c1.7-0.4,3.4-0.4,5.1-0.2c1.7,0.3,3.4,0.8,5,1.6c-2.1,1-4.4,1.5-6.8,1.5
	C21.2,39,18.9,38.4,16.8,37.4z"/>
<path d="M11.2,36.3c-0.3-0.2-0.3-0.5-0.3-0.8c0,0,0.1-0.1,0.1-0.1c2.2-1.1,4.2-2.4,6.5-3.3c4.7-1.9,10-1.7,14.5,0.6
	c1.4,0.7,2.8,1.5,4.2,2.2c0.5,0.2,0.8,0.7,0.8,1.2L36.9,36c-2.4-1.6-5-2.8-7.7-3.5c-4.4-1.2-9.1-0.8-13.2,1.1
	c-1.6,0.7-3.1,1.5-4.5,2.5L11.2,36.3z"/>
<path d="M26.4,21.5c0-0.8,0.5-1.6,1.2-2c0.4-0.3,1-0.5,1.5-0.5c0.2,0,0.4,0.1,0.6,0.2c0.4,0.3,0.8,0.6,1.1,1
	c-0.1,0.2-0.1,0.4-0.2,0.5c0,0.1-0.1,0.1-0.2,0.1L26.4,21.5z"/>
<path d="M22,20.9c-0.1,0.2-0.2,0.3-0.3,0.5c0,0.1-0.1,0.1-0.2,0.1c-1-0.1-2.1-0.3-3.1-0.4c-0.3-0.1-0.5-0.2-0.7-0.3
	c-0.1-0.1-0.1-0.2-0.1-0.3c0-0.4,0.2-0.8,0.6-1c0.1,0,0.2-0.1,0.4-0.1c0.4-0.2,0.9-0.2,1.3,0.1L22,20.9z"/>
</svg>
