<?xml version="1.0" encoding="utf-8"?>
<!-- Generator: Adobe Illustrator 25.4.1, SVG Export Plug-In . SVG Version: 6.00 Build 0)  -->
<svg version="1.1" id="Layer_1" xmlns="http://www.w3.org/2000/svg" xmlns:xlink="http://www.w3.org/1999/xlink" x="0px" y="0px"
	 viewBox="0 0 612 758.84" style="enable-background:new 0 0 612 758.84;" xml:space="preserve">
<path d="M-0.29,672.48c0-195.29,0-390.57,0-585.86c0.5-2.88,1-5.77,1.5-8.65C7.95,39.07,39.97,7.56,78.92,1.52
	C82.77,0.93,86.65,0.5,90.51,0C234.14,0,377.77,0,521.4,0c0.56,0.15,1.11,0.35,1.67,0.44c5.27,0.76,10.62,1.14,15.8,2.3
	c42.1,9.35,73.07,48.11,73.07,91.26c0,190.46,0.01,380.92-0.06,571.38c0,5.39-0.49,10.87-1.52,16.15
	c-8.92,45.67-47.39,77.31-93.86,77.32c-140.47,0.01-280.94,0.01-421.41-0.02c-3.84,0-7.69-0.24-11.5-0.67
	c-39.82-4.55-72.17-33.33-81.36-72.38C1.18,681.38,0.54,676.91-0.29,672.48z M15.54,379.47c0,94.23-0.02,188.46,0.06,282.69
	c0,5.48,0.5,11.02,1.44,16.42c6.3,36.48,39.44,64.25,76.45,64.25c141,0,282.01,0.01,423.01-0.04c4.44,0,8.92-0.34,13.31-0.99
	c37.39-5.48,66.2-38.96,66.2-76.9c0.01-190.21,0.01-380.42-0.02-570.62c0-3.57-0.22-7.18-0.75-10.71
	c-5.85-39.01-38.78-67.35-78.36-67.36c-140.74-0.03-281.48-0.04-422.22,0.09c-6.66,0.01-13.5,0.84-19.95,2.49
	c-35.1,8.98-59.15,40.36-59.16,76.68C15.53,190.14,15.55,284.8,15.54,379.47z"/>
<path d="M216.23,295.24c-10.26,9.11-15.24,21.51-21.85,32.72c-15.62,26.49-30.77,53.25-45.94,80c-4.94,8.7-8.53,17.99-9.81,28.03
	c-2.05,16.17,3.59,28.79,17.4,37.59c6.94,4.42,14.62,6.98,22.55,8.92c1.14,0.28,2.7,1.01,3.07,1.94
	c4.95,12.15,14.97,19.55,25.04,26.84c14.8,10.7,31.16,18.63,47.59,26.4c5.53,2.61,11.05,5.23,16.57,7.86
	c0.67,0.32,1.3,0.72,1.82,1.56c-0.83,0-1.65,0-2.48,0c-44.52,0-89.04,0.02-133.56-0.01c-31.76-0.02-57.59-25.87-57.59-57.59
	c0-115.92,0-231.85,0-347.77c0-31.52,25.93-57.47,57.46-57.48c113.53-0.01,227.07-0.01,340.6,0c31.62,0,57.49,25.83,57.49,57.37
	c0.01,116.1,0.01,232.2,0,348.3c0,31.12-25.77,57.09-56.9,57.15c-43.38,0.09-86.77,0.02-130.15,0.02c-0.67,0-1.33-0.06-2.13-0.51
	c3.09-1.49,6.19-2.95,9.26-4.49c15.55-7.78,31.32-15.19,45.17-25.89c9-6.94,17.85-14.08,26.56-21.38c1.68-1.41,2.93-3.8,3.5-5.97
	c1.01-3.84,3.27-5.57,6.96-6.72c5.4-1.68,10.79-3.64,15.79-6.25c11.71-6.11,20.36-15.01,23.32-28.39c1.85-8.33,0.1-16.16-3.91-23.52
	c-12.67-23.24-25.29-46.51-38.15-69.64c-10.66-19.17-21.62-38.16-32.5-57.21c-1.01-1.76-1.39-3.4-0.95-5.45
	c0.96-4.52,1.98-9.08,2.32-13.68c0.23-3.13-0.21-6.47-1.11-9.5c-1.93-6.52-5.33-12.36-10.01-17.33
	c-10.54-11.21-24.4-13.6-39.14-7.44c-8.67,3.63-17.45,7.27-26.52,9.63c-21.7,5.65-42.48,2.22-62.03-8.52
	c-7.82-4.3-15.81-6.44-24.64-3.94c-4.89,1.38-9.27,3.78-12.86,7.32c-6.02,5.93-11.01,12.66-14.44,20.44
	c-3.86,8.76-2.87,17.03,2.86,24.71C215.34,293.95,215.72,294.53,216.23,295.24z M153.23,120.44c-29.67,16.52-44.9,42.87-52.58,74.84
	c6.44-3.56,12.56-6.94,19.29-10.65c-0.41,1.79-0.61,2.71-0.84,3.62c-4.09,16.51-5.79,33.19-4.01,50.18
	c3.52,33.78,19.84,61.03,43.22,84.65c0.48,0.49,1.8,0.7,2.43,0.41c31.8-14.64,40.91-41.66,36.51-72.23
	c-0.92,0.36-1.8,0.68-2.66,1.05c-5.37,2.32-10.76,4.59-16.09,7c-1.43,0.65-2.38,0.59-3.37-0.69c-1.55-2-3.29-3.86-4.85-5.86
	c-13.9-17.71-18.85-37.36-12.5-59.31c0.87-3.01,0.66-5.62-0.68-8.31c-1.21-2.42-2.39-4.86-3.54-7.31c-0.27-0.57-0.37-1.21-0.63-2.1
	c0.92,0.3,1.49,0.46,2.05,0.66c24.48,8.83,48.57,18.6,72.2,29.54c9.33,4.31,18.89,8.31,28.68,11.4
	c11.32,3.57,19.66-0.42,25.55-10.77c0.32-0.57,0.63-1.14,1.26-2.28c0.07,1.05,0.14,1.45,0.11,1.84c-0.34,4.88-0.69,9.76-1.03,14.64
	c-0.32,4.63,1.09,8.56,4.53,11.77c4.83,4.51,10.34,7.74,16.8,9.22c10.72,2.46,20.7-2.03,25.5-11.78c1.52-3.09,2.57-6.52,3.26-9.91
	c0.79-3.86,0.94-7.85,1.38-11.99c1.13,1.42,2.11,2.74,3.18,3.97c5.45,6.25,12.27,8.51,20.29,6.47c3.53-0.9,7.02-2.15,10.33-3.67
	c29.94-13.69,60.11-26.81,90.96-38.32c0.84-0.31,1.7-0.56,3.18-1.05c-1.73,3.35-3.04,6.1-4.54,8.75c-1.57,2.76-1.79,5.41-0.72,8.49
	c3.26,9.43,3.98,19.11,2.16,28.95c-2.58,13.99-9.75,25.69-18.32,36.67c-0.41,0.53-1.86,0.71-2.6,0.45
	c-5.67-2.02-11.29-4.2-16.93-6.32c-1.34-0.5-2.68-0.98-4.23-1.54c0,11.09-0.05,21.76,0.03,32.43c0.03,4.57,1.19,8.67,4.79,12.02
	c7.48,6.97,14.73,14.2,22.09,21.3c3.25,3.14,6.55,6.22,9.86,9.35c40.48-39.84,56.76-86.33,40.17-142.51
	c7.03,3.89,13.4,7.42,20.26,11.23c-7.47-32.22-23.68-57.62-51.96-74.93c3.43-4.38,6.6-8.65,10.03-12.7c1.54-1.82,1.47-3.13-0.32-4.7
	c-19.73,7.08-39.54,14.19-59.67,21.42c0.56-5.47,1.07-10.36,1.62-15.65c-0.87,0.46-1.34,0.67-1.77,0.93
	c-22.71,13.94-45.44,27.85-68.13,41.83c-9.29,5.73-18.41,11.75-27.76,17.39c-5.71,3.45-11.71,3.18-17.43-0.23
	c-4.13-2.45-8.2-5.02-12.18-7.7c-22.07-14.79-44.29-29.34-67.96-41.5c-5.83-3-11.81-5.72-18.19-8.78c1.73,5.1,3.28,9.67,5.01,14.77
	c-20.46-7.6-40.38-14.99-60.19-22.35c-2.31,2.03-2.04,3.76-0.28,5.87C147.17,112.26,150.07,116.3,153.23,120.44z"/>
<path d="M82.53,688.64c0-7.41,0-14.81,0-22.33c97.32,0,194.53,0,291.96,0c0,7.38,0,14.76,0,22.33
	C277.23,688.64,179.96,688.64,82.53,688.64z"/>
<path d="M229.12,460.87c12.31-6.01,24.58-10.39,37.43-13.01c18.11-3.7,36.41-4.99,54.7-1.93c18.39,3.08,35.98,8.99,53.52,17.14
	c-23.49,11.21-47.55,16.85-73.05,16.01C276.38,478.24,252.6,471.33,229.12,460.87z"/>
<path d="M270.14,596.54c-2.66,18.29-5.33,36.58-8.02,55.03c-5.25,0-10.37,0-15.76,0c-2.31-18.5-4.62-37.02-6.94-55.54
	c-0.14,0.01-0.28,0.02-0.42,0.02c0,18.42,0,36.85,0,55.48c-4.18,0-8.15,0-12.3,0c0-23.64,0-47.21,0-70.99c7.02,0,14.05,0,21.39,0
	c2.11,17.85,4.22,35.68,6.33,53.51c0.18,0.02,0.36,0.03,0.54,0.05c0.45-3.57,0.93-7.15,1.35-10.72c1.61-13.72,3.18-27.44,4.88-41.14
	c0.09-0.69,1.16-1.8,1.79-1.81c6.47-0.13,12.93-0.08,19.65-0.08c0,23.78,0,47.41,0,71.22c-4.01,0-7.98,0-12.04,0
	c0-18.42,0-36.71,0-55C270.43,596.56,270.29,596.55,270.14,596.54z"/>
<path d="M220.12,651.59c-4.08,0-8.06,0-12.12,0c0-18.66,0-37.17,0-55.67c-0.11-0.02-0.22-0.03-0.33-0.05
	c-2.7,18.52-5.4,37.04-8.12,55.71c-5.23,0-10.35,0-15.75,0c-2.29-18.37-4.58-36.69-6.87-55.02c-0.17,0.01-0.34,0.02-0.51,0.03
	c0,18.23,0,36.46,0,54.92c-4.22,0-8.18,0-12.29,0c0-23.6,0-47.18,0-70.97c7.03,0,14.06,0,21.4,0c2.14,18.05,4.28,36.16,6.42,54.27
	c0.13,0.01,0.27,0.03,0.4,0.04c2.14-18.06,4.28-36.11,6.44-54.33c7.15,0,14.18,0,21.33,0C220.12,604.25,220.12,627.84,220.12,651.59
	z"/>
<path d="M168.58,448.37c-2.98-2.09-2.8-5.34-3.29-8.28c-0.06-0.34,0.66-0.96,1.14-1.21c23.25-12.04,45.63-25.83,70.03-35.57
	c21.43-8.56,43.67-13.4,66.83-13.91c31.7-0.7,61.48,6.87,89.73,20.78c15.43,7.6,30.42,16.09,45.84,23.7
	c5.57,2.75,7.69,7.15,9.19,12.84c-0.88-0.51-1.52-0.84-2.13-1.24c-25.85-16.66-53.18-30.09-83.01-38.04
	C314,394.4,266.52,399,220.32,419.19c-16.94,7.41-32.95,16.49-48.23,26.88C170.94,446.85,169.77,447.6,168.58,448.37z"/>
<path d="M519.99,580.5c4.22,0,8.22,0,12.46,0c0,23.64,0,47.27,0,71.23c-6.23,0-12.41,0.05-18.59-0.09c-0.5-0.01-1.27-1.23-1.41-1.98
	c-2.49-13.67-4.91-27.35-7.35-41.02c-0.55-3.08-1.12-6.16-1.83-9.22c0,17.35,0,34.7,0,52.18c-3.99,0-8.06,0-12.21,0
	c0-23.75,0-47.35,0-71.09c6.55,0,13,0,19.89,0c3.16,17.54,6.33,35.19,9.51,52.83c0.15-0.01,0.3-0.02,0.45-0.03
	C520.6,615.81,520.3,598.32,519.99,580.5z"/>
<path d="M341.38,598.43c0,17.76,0,35.31,0,53.09c-3.76,0-7.81,0-12.01,0c0-23.62,0-47.19,0-70.97c6.53,0,13.03,0,19.72,0
	c3.07,17.09,6.14,34.16,9.2,51.22c0.22-0.01,0.45-0.02,0.67-0.03c-0.28-16.99-0.56-33.98-0.85-51.19c4.23,0,8.28,0,12.54,0
	c0,23.64,0,47.27,0,71.04c-6.52,0-12.96,0-19.78,0C347.73,633.98,344.57,616.28,341.38,598.43z"/>
<path d="M485.62,616.04c0,7.08,0.01,14.17,0,21.25c-0.01,9.84-3.46,14.05-13.26,14.92c-4.53,0.4-9.26-0.06-13.75-0.9
	c-4.76-0.89-7.37-4.43-8.06-9.22c-0.27-1.9-0.42-3.83-0.42-5.75c-0.04-13.29-0.03-26.59,0-39.88c0-1.92,0.14-3.84,0.36-5.75
	c0.63-5.48,3.43-8.78,8.79-10.11c5.6-1.39,11.26-1.39,16.88-0.07c5.63,1.32,8.77,4.35,9.04,10.08c0.4,8.46,0.1,16.95,0.1,25.42
	C485.4,616.04,485.51,616.04,485.62,616.04z M464.46,615.81c0,6.82-0.02,13.65,0.01,20.47c0.01,3.04,0.73,3.85,3.29,3.9
	c2.63,0.05,3.63-0.76,3.65-3.62c0.07-13.65,0.07-27.29,0-40.94c-0.02-3-0.93-3.55-3.9-3.57c-2.78-0.02-3.05,1.7-3.04,3.82
	C464.47,602.52,464.46,609.17,464.46,615.81z"/>
<path d="M323.45,580.59c0,1.01,0,1.95,0,2.89c0,16.53,0.06,33.05-0.05,49.58c-0.02,3.47-0.36,7-1.04,10.4
	c-0.91,4.49-3.76,7.81-8.39,8.25c-5.25,0.5-10.62,0.51-15.86-0.05c-4.96-0.53-7.75-4.1-8.64-8.95c-0.39-2.14-0.62-4.34-0.63-6.51
	c-0.05-17.84-0.03-35.68-0.02-53.51c0-0.68,0.08-1.37,0.13-2.19c4.45,0,8.79,0,13.51,0c0,1.1,0,2.11,0,3.12
	c0,16.53,0,33.05,0.01,49.58c0,1.14-0.04,2.29,0.14,3.4c0.3,1.88,1.4,2.91,3.41,2.91c1.97,0,3.18-0.83,3.43-2.82
	c0.13-1.04,0.17-2.09,0.17-3.13c0.01-16.53,0.01-33.05,0.01-49.58c0-1.04,0-2.09,0-3.38C314.23,580.59,318.7,580.59,323.45,580.59z"
	/>
<path d="M118.29,603.48c-4.86,0-9.03,0-13.53,0c0-2.73-0.02-5.33,0.01-7.92c0.03-2.23-0.93-3.41-3.26-3.49
	c-3.17-0.11-4.04,0.41-4.46,3.07c-0.12,0.77-0.15,1.57-0.15,2.35c-0.01,12.77-0.01,25.55,0,38.32c0,3.89,3.36,5.85,6.72,3.87
	c0.55-0.33,1.06-1.22,1.09-1.88c0.12-2.88,0.06-5.77,0.06-8.66c0-0.68-0.06-1.37-0.09-2.18c-1.31-0.1-2.49-0.19-3.78-0.29
	c0-4.44,0-8.77,0-13.26c5.7,0,11.25,0,16.87,0c0.1,0.36,0.27,0.69,0.26,1.02c-0.04,8.75,0.15,17.5-0.22,26.23
	c-0.31,7.48-3.35,10.67-10.74,11.39c-4.48,0.44-9.09,0.37-13.56-0.17c-7.07-0.86-10.67-5.13-10.74-12.58
	c-0.14-15.48-0.16-30.97,0.01-46.46c0.09-7.78,4.09-12.01,11.83-12.72c4.06-0.37,8.21-0.36,12.27,0.04c5.99,0.59,9.6,3.79,10.55,9.6
	C118.14,594.2,118.02,598.77,118.29,603.48z"/>
<path d="M136.53,634.8c-0.49,4.8-1.08,9.48-1.41,14.18c-0.14,2.05-0.69,2.93-2.92,2.82c-3.65-0.19-7.32-0.05-11.34-0.05
	c0.43-3.77,0.81-7.3,1.25-10.81c2.42-19.43,4.88-38.85,7.24-58.29c0.21-1.77,0.8-2.36,2.58-2.33c6.55,0.09,13.11,0.04,20,0.04
	c3,23.74,5.98,47.36,9.01,71.37c-4.5,0-8.75,0.07-12.99-0.1c-0.44-0.02-1.11-1.36-1.2-2.14c-0.59-4.85-1.04-9.72-1.55-14.68
	C142.34,634.8,139.64,634.8,136.53,634.8z M144.04,622.19c-0.97-9.69-1.91-19.19-2.86-28.69c-0.21,0.01-0.43,0.02-0.64,0.03
	c-0.93,9.53-1.87,19.07-2.81,28.66C140.02,622.19,141.9,622.19,144.04,622.19z"/>
<path d="M469.47,666.39c0,7.44,0,14.69,0,22.15c-27.08,0-54.12,0-81.31,0c0-7.32,0-14.63,0-22.15
	C415.14,666.39,442.18,666.39,469.47,666.39z"/>
<path d="M427.27,580.5c0,4.36,0,8.36,0,12.73c-3.07,0-6.07,0-9.33,0c0,19.64,0,38.91,0,58.35c-4.69,0-9.1,0-13.83,0
	c0-19.4,0-38.68,0-58.22c-3.25,0-6.19,0-9.29,0c0-4.42,0-8.56,0-12.85C405.67,580.5,416.37,580.5,427.27,580.5z"/>
<path d="M377.28,580.53c4.49,0,8.9,0,13.41,0c0,23.71,0,47.28,0,71.04c-4.49,0-8.89,0-13.41,0
	C377.28,627.84,377.28,604.28,377.28,580.53z"/>
<path d="M431.15,580.52c4.64,0,8.97,0,13.42,0c0,23.74,0,47.3,0,71.04c-4.49,0-8.9,0-13.42,0
	C431.15,627.85,431.15,604.28,431.15,580.52z"/>
<path d="M332.33,289.17c1.12-9.36,4.75-16.76,12.54-21.73c4.8-3.06,10.17-4.75,15.76-5.2c2-0.16,4.48,1.01,6.15,2.32
	c4.24,3.32,8.15,7.07,12.28,10.72c-0.86,1.96-1.57,3.83-2.52,5.58c-0.35,0.65-1.22,1.32-1.94,1.44
	C360.66,284.61,346.72,286.84,332.33,289.17z"/>
<path d="M285.71,282.35c-1.16,1.94-1.95,3.5-2.99,4.86c-0.42,0.56-1.44,1.06-2.11,0.97c-11.23-1.51-22.47-2.99-33.65-4.81
	c-2.76-0.45-5.42-1.9-7.95-3.21c-0.81-0.42-1.59-1.92-1.52-2.86c0.35-4.92,1.76-9.29,7.06-11.15c1.31-0.46,2.57-1.09,3.85-1.64
	c4.9-2.12,9.62-2.17,14.12,1.1C270.19,271.17,277.9,276.71,285.71,282.35z"/>
<path d="M495.17,685.74c0-5.59,0-10.81,0-16.02c9.04-2.75,29.41,1.24,39.44,7.86C522.4,685.04,509.19,686.62,495.17,685.74z"/>
<path d="M481.47,669.44c4.25,0,8.32,0,12.56,0c0,5.45,0,10.8,0,16.29c-4.19,0-8.26,0-12.56,0
	C481.47,680.35,481.47,675.01,481.47,669.44z"/>
<path d="M470.33,688.96c0-7.75,0-15.04,0-22.79c3.26,0.98,6.31,1.83,9.3,2.86c0.42,0.14,0.79,1.1,0.79,1.69
	c0.06,4.53,0.09,9.07-0.03,13.6c-0.02,0.65-0.7,1.64-1.31,1.86C476.34,687.18,473.51,687.97,470.33,688.96z"/>
<path d="M376.61,666.62c0.92,0,1.73,0,2.68,0c0,7.37,0,14.58,0,22c-0.87,0.05-1.69,0.09-2.68,0.15
	C376.61,681.31,376.61,674.03,376.61,666.62z"/>
<path d="M387.04,666.47c0,7.53,0,14.68,0,22.05c-2.13-0.94-3.31-2.08-3.2-4.53c0.19-4.19,0.17-8.4,0.01-12.59
	C383.75,669.03,384.82,667.68,387.04,666.47z"/>
<path d="M380.34,686.09c0-5.81,0-11.38,0-17.07c0.87,0,1.62,0,2.57,0c0,5.7,0,11.32,0,17.07
	C382.04,686.09,381.27,686.09,380.34,686.09z"/>
</svg>
